<?xml version="1.0" encoding="UTF-8" standalone="no"?>
<!-- Created with Inkscape (http://www.inkscape.org/) -->

<svg
   xmlns:dc="http://purl.org/dc/elements/1.1/"
   xmlns:cc="http://creativecommons.org/ns#"
   xmlns:rdf="http://www.w3.org/1999/02/22-rdf-syntax-ns#"
   xmlns:svg="http://www.w3.org/2000/svg"
   xmlns="http://www.w3.org/2000/svg"
   xmlns:sodipodi="http://sodipodi.sourceforge.net/DTD/sodipodi-0.dtd"
   xmlns:inkscape="http://www.inkscape.org/namespaces/inkscape"
   width="24.038227"
   height="24.037352"
   id="svg7261"
   version="1.1"
   inkscape:version="0.48.3.1 r9886"
   sodipodi:docname="Nou document 5">
  <defs
     id="defs7263" />
  <sodipodi:namedview
     id="base"
     pagecolor="#ffffff"
     bordercolor="#666666"
     borderopacity="1.0"
     inkscape:pageopacity="0.0"
     inkscape:pageshadow="2"
     inkscape:zoom="4.8137251"
     inkscape:cx="16.579366"
     inkscape:cy="7.6657285"
     inkscape:document-units="px"
     inkscape:current-layer="capa1"
     showgrid="false"
     fit-margin-top="0"
     fit-margin-left="0"
     fit-margin-right="0"
     fit-margin-bottom="0"
     inkscape:window-width="469"
     inkscape:window-height="421"
     inkscape:window-x="274"
     inkscape:window-y="151"
     inkscape:window-maximized="0" />
  <metadata
     id="metadata7266">
    <rdf:RDF>
      <cc:Work
         rdf:about="">
        <dc:format>image/svg+xml</dc:format>
        <dc:type
           rdf:resource="http://purl.org/dc/dcmitype/StillImage" />
        <dc:title></dc:title>
      </cc:Work>
    </rdf:RDF>
  </metadata>
  <g
     inkscape:label="Capa 1"
     inkscape:groupmode="layer"
     id="capa1"
     transform="translate(-353.69517,-474.62922)">
    <g
       transform="translate(351.71427,329.64847)"
       id="pencil">
      <path
         inkscape:connector-curvature="0"
         d="m 19.687,147.232 0.51,0.511 3.06,3.061 0.511,0.51 0.51,-0.51 1.021,-1.02 0.509,-0.512 c 0.281,-0.279 0.282,-0.738 0,-1.021 l -3.059,-3.059 c -0.282,-0.282 -0.741,-0.281 -1.021,-0.001 l -0.511,0.51 -1.02,1.021 -0.51,0.51 z"
         id="path7072" />
      <rect
         x="4.9959998"
         y="154.03999"
         transform="matrix(0.7071,-0.7071,0.7071,0.7071,-106.8404,55.915)"
         width="18.158001"
         height="5.7709999"
         id="rect7074" />
      <path
         inkscape:connector-curvature="0"
         d="m 4.379,162.54 -2.364,6.152 c -0.101,0.262 0.03,0.393 0.292,0.292 l 6.152,-2.363 -4.08,-4.081 z"
         id="path7076" />
    </g>
  </g>
</svg>
