<?xml version="1.0" encoding="UTF-8" standalone="no"?>
<!-- Generator: Adobe Illustrator 16.0.0, SVG Export Plug-In . SVG Version: 6.00 Build 0)  -->

<svg
   xmlns:dc="http://purl.org/dc/elements/1.1/"
   xmlns:cc="http://creativecommons.org/ns#"
   xmlns:rdf="http://www.w3.org/1999/02/22-rdf-syntax-ns#"
   xmlns:svg="http://www.w3.org/2000/svg"
   xmlns="http://www.w3.org/2000/svg"
   xmlns:sodipodi="http://sodipodi.sourceforge.net/DTD/sodipodi-0.dtd"
   xmlns:inkscape="http://www.inkscape.org/namespaces/inkscape"
   version="1.1"
   id="Capa_1"
   x="0px"
   y="0px"
   width="612px"
   height="612px"
   viewBox="0 0 612 612"
   style="enable-background:new 0 0 612 612;"
   xml:space="preserve"
   inkscape:version="0.48.3.1 r9886"
   sodipodi:docname="close.svg"><metadata
   id="metadata3107"><rdf:RDF><cc:Work
       rdf:about=""><dc:format>image/svg+xml</dc:format><dc:type
         rdf:resource="http://purl.org/dc/dcmitype/StillImage" /><dc:title></dc:title></cc:Work></rdf:RDF></metadata><defs
   id="defs3105" /><sodipodi:namedview
   pagecolor="#ffffff"
   bordercolor="#666666"
   borderopacity="1"
   objecttolerance="10"
   gridtolerance="10"
   guidetolerance="10"
   inkscape:pageopacity="0"
   inkscape:pageshadow="2"
   inkscape:window-width="640"
   inkscape:window-height="480"
   id="namedview3103"
   showgrid="false"
   inkscape:zoom="0.38562092"
   inkscape:cx="306"
   inkscape:cy="306"
   inkscape:window-x="65"
   inkscape:window-y="24"
   inkscape:window-maximized="0"
   inkscape:current-layer="Capa_1" />

<g
   id="g3073">
</g>
<g
   id="g3075">
</g>
<g
   id="g3077">
</g>
<g
   id="g3079">
</g>
<g
   id="g3081">
</g>
<g
   id="g3083">
</g>
<g
   id="g3085">
</g>
<g
   id="g3087">
</g>
<g
   id="g3089">
</g>
<g
   id="g3091">
</g>
<g
   id="g3093">
</g>
<g
   id="g3095">
</g>
<g
   id="g3097">
</g>
<g
   id="g3099">
</g>
<g
   id="g3101">
</g>
<path
   d="m 255.01272,10.152563 c -9.14309,0 -16.56357,8.283765 -16.56357,18.490528 l 0,110.943119 c 0,1.24256 -0.19881,2.29284 0,3.46514 -0.1324,2.39267 0,4.48987 0,6.93395 l 0,82.05169 -215.326258,0 c -9.143089,0 -16.5635686,8.28374 -16.5635686,18.49052 l 0,110.94314 c 0,10.20675 7.4204796,18.49052 16.5635686,18.49052 l 215.326258,0 0,85.51865 c 0,1.63087 -0.0662,3.01397 0,4.62263 -0.0662,0.69527 0,1.59759 0,2.31132 l 0,110.94314 c 0,10.20677 7.42048,18.49051 16.56357,18.49051 l 99.38134,0 c 9.14309,0 16.56357,-8.28374 16.56357,-18.49051 l 0,-110.94314 c 0.0332,-0.79878 -0.0321,-1.50881 0,-2.31132 0.0662,-1.60866 0,-2.99176 0,-4.62263 l 0,-85.51865 215.32627,0 c 9.1431,0 16.56356,-8.28377 16.56356,-18.49052 l 0,-110.94314 c 0,-10.20678 -7.42046,-18.49052 -16.56356,-18.49052 l -215.32627,0 0,-82.05169 c 0,-2.44444 0.13239,-4.54092 0,-6.93395 0.19882,-1.1723 0,-2.22626 0,-3.46514 l 0,-110.943119 c 0,-10.206763 -7.42048,-18.490528 -16.56357,-18.490528 l -99.38134,0 z"
   id="path843"
   inkscape:connector-curvature="0" /></svg>